<svg width="19" height="18" viewBox="0 0 19 18" fill="none" xmlns="http://www.w3.org/2000/svg">
<path d="M2.3971 0.373823L9.5 7.10264L16.5737 0.401514C16.6976 0.276515 16.847 0.17652 17.0127 0.107526C17.1785 0.0385311 17.3572 0.0019582 17.5383 0C17.9259 0 18.2976 0.14587 18.5717 0.40552C18.8458 0.66517 18.9998 1.01733 18.9998 1.38453C19.0032 1.55428 18.9699 1.72289 18.9021 1.88003C18.8342 2.03717 18.7332 2.17951 18.6052 2.29832L11.4584 8.99945L18.6052 15.7698C18.846 15.9931 18.9873 16.2954 18.9998 16.6144C18.9998 16.9816 18.8458 17.3337 18.5717 17.5934C18.2976 17.853 17.9259 17.9989 17.5383 17.9989C17.352 18.0062 17.1662 17.9768 16.9926 17.9124C16.819 17.8481 16.6614 17.7502 16.5298 17.6251L9.5 10.8963L2.41172 17.6112C2.28823 17.7321 2.1407 17.8285 1.97765 17.8951C1.8146 17.9616 1.63926 17.9969 1.46174 17.9989C1.07413 17.9989 0.702387 17.853 0.428302 17.5934C0.154217 17.3337 0.000237795 16.9816 0.000237795 16.6144C-0.00316969 16.4446 0.0300751 16.276 0.097932 16.1189C0.165789 15.9617 0.266826 15.8194 0.394843 15.7006L7.54159 8.99945L0.394843 2.22909C0.153966 2.00585 0.0127185 1.70354 0.000237795 1.38453C0.000237795 1.01733 0.154217 0.66517 0.428302 0.40552C0.702387 0.14587 1.07413 0 1.46174 0C1.8125 0.00415359 2.14865 0.138453 2.3971 0.373823Z" fill="#111111"/>
</svg>
