<svg width="17" height="9" viewBox="0 0 17 9" fill="none" xmlns="http://www.w3.org/2000/svg">
<path d="M16.7136 3.57495L13.345 0.206437C13.1434 0.00486999 12.8402 -0.0554178 12.5768 0.0536775C12.3134 0.162773 12.1417 0.419774 12.1416 0.704875V2.83963C12.1416 2.93697 12.0627 3.01588 11.9653 3.01588H1.05751C0.473462 3.01588 0 3.48934 0 4.07339C0 4.65743 0.473462 5.1309 1.05751 5.1309H11.9653C12.0627 5.1309 12.1416 5.20981 12.1416 5.30715V7.4419C12.1417 7.72701 12.3134 7.98401 12.5768 8.0931C12.8402 8.2022 13.1434 8.14191 13.345 7.94034L16.7136 4.57183C16.9888 4.29652 16.9888 3.85026 16.7136 3.57495Z" fill="#F40000"/>
</svg>
