<svg width="30" height="15" viewBox="0 0 30 15" fill="none" xmlns="http://www.w3.org/2000/svg">
<path d="M29.634 6.58227L23.6615 0.380095C23.304 0.00896672 22.7664 -0.102036 22.2994 0.0988319C21.8324 0.2997 21.5278 0.772896 21.5277 1.29783V5.22838C21.5277 5.40761 21.3878 5.5529 21.2152 5.5529H1.87502C0.839473 5.5529 0 6.42464 0 7.5C0 8.57535 0.839473 9.4471 1.87502 9.4471H21.2152C21.3878 9.4471 21.5277 9.59239 21.5277 9.77162V13.7022C21.5278 14.2271 21.8324 14.7003 22.2994 14.9012C22.7664 15.102 23.304 14.991 23.6615 14.6199L29.634 8.41773C30.122 7.91084 30.122 7.08916 29.634 6.58227Z" fill="#F40000"/>
</svg>
