<svg width="29" height="9" viewBox="0 0 29 9" fill="none" xmlns="http://www.w3.org/2000/svg">
<path d="M28.4535 3.94712L24.7343 0.227927C24.5117 0.00537698 24.1769 -0.061187 23.8861 0.0592655C23.5953 0.179718 23.4056 0.463474 23.4056 0.778255V3.13525C23.4056 3.24272 23.3185 3.32985 23.211 3.32985H1.1676C0.522751 3.32985 0 3.8526 0 4.49744C0 5.14229 0.522751 5.66504 1.1676 5.66504H23.211C23.3185 5.66504 23.4056 5.75217 23.4056 5.85964V8.21663C23.4056 8.53141 23.5953 8.81517 23.8861 8.93562C24.1769 9.05607 24.5117 8.98951 24.7343 8.76696L28.4535 5.04777C28.7574 4.74381 28.7574 4.25108 28.4535 3.94712Z" fill="#CC0D12"/>
</svg>
