<svg width="19" height="9" viewBox="0 0 19 9" fill="none" xmlns="http://www.w3.org/2000/svg">
<path d="M18.4535 3.94712L14.7343 0.227927C14.5117 0.00537698 14.1769 -0.061187 13.8861 0.0592655C13.5953 0.179718 13.4056 0.463474 13.4056 0.778255V3.13525C13.4056 3.24272 13.3185 3.32985 13.211 3.32985H1.1676C0.522751 3.32985 0 3.8526 0 4.49744C0 5.14229 0.522751 5.66504 1.1676 5.66504H13.211C13.3185 5.66504 13.4056 5.75217 13.4056 5.85964V8.21663C13.4056 8.53141 13.5953 8.81517 13.8861 8.93562C14.1769 9.05607 14.5117 8.98951 14.7343 8.76696L18.4535 5.04777C18.7574 4.74381 18.7574 4.25108 18.4535 3.94712Z" fill="#CC0D12"/>
</svg>
