<svg width="14" height="11" viewBox="0 0 14 11" fill="none" xmlns="http://www.w3.org/2000/svg">
<path d="M11.8125 0C12.3927 0 12.9491 0.22287 13.3593 0.619582C13.7695 1.01629 14 1.55435 14 2.11538V8.88462C14 9.44565 13.7695 9.98371 13.3593 10.3804C12.9491 10.7771 12.3927 11 11.8125 11H2.1875C1.60734 11 1.05094 10.7771 0.640704 10.3804C0.230468 9.98371 0 9.44565 0 8.88462V2.11538C0 1.55435 0.230468 1.01629 0.640704 0.619582C1.05094 0.22287 1.60734 0 2.1875 0H11.8125ZM13.125 3.35162L7.22225 6.71085C7.16644 6.74253 7.10407 6.76185 7.03961 6.76741C6.97515 6.77297 6.91022 6.76463 6.8495 6.743L6.77775 6.71085L0.875 3.35331V8.88462C0.875 9.22124 1.01328 9.54407 1.25942 9.7821C1.50556 10.0201 1.8394 10.1538 2.1875 10.1538H11.8125C12.1606 10.1538 12.4944 10.0201 12.7406 9.7821C12.9867 9.54407 13.125 9.22124 13.125 8.88462V3.35162ZM11.8125 0.846154H2.1875C1.8394 0.846154 1.50556 0.979876 1.25942 1.2179C1.01328 1.45593 0.875 1.77876 0.875 2.11538V2.37092L7 5.85538L13.125 2.36923V2.11538C13.125 1.77876 12.9867 1.45593 12.7406 1.2179C12.4944 0.979876 12.1606 0.846154 11.8125 0.846154Z" fill="#333333"/>
</svg>
