<svg width="24" height="24" viewBox="0 0 24 24" fill="none" xmlns="http://www.w3.org/2000/svg">
<g filter="url(#filter0_d)">
<path d="M15.8255 15C15.6892 14.9996 15.5534 14.9843 15.4203 14.9544C12.8865 14.4184 10.5522 13.1616 8.6861 11.3287C6.85979 9.49182 5.59314 7.15304 5.03942 4.59536C4.97413 4.2766 4.99015 3.94602 5.08595 3.63542C5.18175 3.32482 5.3541 3.04466 5.58642 2.8219L7.20717 1.22661C7.28995 1.14655 7.38831 1.08524 7.49583 1.04668C7.60335 1.00813 7.71761 0.993194 7.83115 1.00285C7.94889 1.01541 8.0625 1.0542 8.164 1.11648C8.26551 1.17876 8.35243 1.26302 8.41867 1.36335L10.4446 4.42547C10.5206 4.54429 10.5573 4.68491 10.5492 4.82663C10.5412 4.96836 10.4889 5.10371 10.4 5.21276L9.38302 6.45584C9.78806 7.3726 10.3617 8.20116 11.0726 8.89643C11.779 9.61692 12.6139 10.1922 13.5321 10.5912L14.7923 9.5677C14.8981 9.48216 15.0269 9.43159 15.1615 9.4227C15.2961 9.41382 15.4302 9.44705 15.5459 9.51797L18.6051 11.5401C18.71 11.6042 18.7995 11.6917 18.8667 11.7962C18.9339 11.9007 18.9771 12.0193 18.993 12.1433C19.009 12.2672 18.9974 12.3933 18.959 12.512C18.9205 12.6307 18.8563 12.739 18.7712 12.8287L17.191 14.4282C17.0115 14.6108 16.7984 14.7554 16.5641 14.8535C16.3297 14.9516 16.0787 15.0014 15.8255 15ZM7.76632 1.82329L6.14558 3.41858C6.01489 3.54311 5.91814 3.70029 5.86486 3.87466C5.81158 4.04902 5.80359 4.23457 5.84169 4.41304C6.35657 6.81308 7.54012 9.00926 9.24931 10.7362C11.0055 12.4606 13.2022 13.6427 15.5864 14.1464C15.7669 14.185 15.9539 14.1772 16.1307 14.1236C16.3075 14.0701 16.4685 13.9726 16.5994 13.8398L18.1796 12.2403L15.2258 10.2887L13.8725 11.3909C13.8207 11.4328 13.7596 11.4612 13.6947 11.4734C13.6297 11.4857 13.5628 11.4816 13.4997 11.4613C12.376 11.0379 11.3577 10.3658 10.5175 9.49311C9.64856 8.66323 8.97403 7.64341 8.54428 6.50971C8.5261 6.44108 8.5255 6.36882 8.54253 6.29988C8.55956 6.23093 8.59365 6.16764 8.64153 6.11607L9.73553 4.77768L7.76632 1.82329Z" fill="#333333"/>
<path d="M8.65106 11.3644L8.65064 11.364C6.81752 9.52023 5.54628 7.17286 4.99055 4.60594L4.99043 4.6054L4.99044 4.6054C4.92346 4.27841 4.9399 3.93931 5.03817 3.62068C5.13642 3.30215 5.31318 3.01471 5.55158 2.78604L7.17209 1.19097L7.17241 1.19066L7.17241 1.19067C7.26025 1.10571 7.36469 1.04059 7.47895 0.999619C7.59321 0.958646 7.71467 0.942763 7.83539 0.953032L7.83646 0.953123L7.83646 0.953134C7.96163 0.966488 8.08235 1.00772 8.19015 1.07386C8.29793 1.13999 8.39015 1.22941 8.46037 1.33576L8.65106 11.3644ZM8.65106 11.3644C10.5238 13.2038 12.8666 14.4652 15.4096 15.0032L8.65106 11.3644ZM10.4863 4.39789L8.4604 1.3358L15.8255 15L15.8252 15.05C15.8252 15.05 15.8253 15.05 15.8253 15.05C16.0853 15.0514 16.3429 15.0003 16.5834 14.8996C16.8239 14.7989 17.0425 14.6506 17.2266 14.4632L18.8068 12.8639L18.8068 12.8639L18.8075 12.8631C18.8978 12.7679 18.9658 12.6531 19.0065 12.5274C19.0472 12.4017 19.0596 12.2682 19.0426 12.1369C19.0257 12.0056 18.98 11.8799 18.9087 11.7691C18.8377 11.6586 18.7431 11.5659 18.6319 11.4979L15.5735 9.47626L15.5735 9.47624L15.572 9.47534C15.4476 9.39905 15.3032 9.36325 15.1582 9.37281C15.0132 9.38238 14.8746 9.43685 14.7608 9.52881L14.7607 9.52888L13.5242 10.5332C12.6229 10.1373 11.8031 9.57007 11.1084 8.86143L11.1084 8.86142L11.1076 8.86068C10.4085 8.177 9.84297 7.36352 9.44121 6.46368L10.4387 5.24442L10.4388 5.24435C10.5344 5.12704 10.5905 4.9816 10.5992 4.82946C10.6078 4.67731 10.5684 4.52627 10.4867 4.39854L10.4867 4.39854L10.4863 4.39789ZM6.18065 3.45421L7.75828 1.90137L9.67343 4.77466L8.60378 6.08324C8.55066 6.14086 8.5129 6.21132 8.49399 6.28788C8.47494 6.36497 8.47562 6.44576 8.49595 6.52251L8.49569 6.52258L8.49753 6.52743C8.92977 7.66771 9.60818 8.69359 10.4822 9.52854C11.3273 10.4062 12.3517 11.0822 13.4821 11.5081L13.4821 11.5082L13.4844 11.5089C13.5554 11.5317 13.6308 11.5364 13.7039 11.5226C13.7771 11.5087 13.8458 11.4768 13.9039 11.4297L13.9041 11.4297L15.2289 10.3507L18.1013 12.2485L16.5638 13.8046L16.5638 13.8047C16.4387 13.9316 16.2849 14.0247 16.1162 14.0758C15.9475 14.1269 15.7691 14.1343 15.5969 14.0975L15.5968 14.0975C13.222 13.5958 11.034 12.4184 9.28457 10.7007C7.58232 8.98072 6.40345 6.79323 5.89058 4.40256L5.84169 4.41304L5.89059 4.40261C5.85426 4.23243 5.86188 4.0555 5.91268 3.88927C5.96347 3.72304 6.05567 3.57332 6.18007 3.45478L6.18008 3.45478L6.18065 3.45421Z" stroke="#333333" stroke-width="0.1"/>
</g>
<defs>
<filter id="filter0_d" x="0.900391" y="0.899902" width="22.2" height="22.2" filterUnits="userSpaceOnUse" color-interpolation-filters="sRGB">
<feFlood flood-opacity="0" result="BackgroundImageFix"/>
<feColorMatrix in="SourceAlpha" type="matrix" values="0 0 0 0 0 0 0 0 0 0 0 0 0 0 0 0 0 0 127 0"/>
<feOffset dy="4"/>
<feGaussianBlur stdDeviation="2"/>
<feColorMatrix type="matrix" values="0 0 0 0 0 0 0 0 0 0 0 0 0 0 0 0 0 0 0.25 0"/>
<feBlend mode="normal" in2="BackgroundImageFix" result="effect1_dropShadow"/>
<feBlend mode="normal" in="SourceGraphic" in2="effect1_dropShadow" result="shape"/>
</filter>
</defs>
</svg>
