<svg width="14" height="14" viewBox="0 0 14 14" fill="none" xmlns="http://www.w3.org/2000/svg">
<path d="M0 7.22871V7.24851C0.175732 9.54554 0.995816 11.2683 2.4212 12.3574C3.82706 13.4663 5.35007 14.001 7.00976 14.001C8.74756 14.0208 10.3682 13.4267 11.8131 12.2386C13.2775 11.0703 14 9.32772 14 7.07029V6.93168C14 4.65445 13.2775 2.95148 11.8131 1.78316C10.3487 0.595046 8.72803 0.000986099 6.99024 0.000986099H6.91213C5.21339 0.0207882 3.65132 0.614848 2.20642 1.80297C0.761506 2.97128 0.0195258 4.77326 0 7.22871ZM6.5802 10.3376V13.4663H6.11158C6.01395 13.3475 5.93584 13.2089 5.85774 13.0901C5.77964 12.9713 5.70153 12.8525 5.62343 12.7139C5.54533 12.595 5.4477 12.4366 5.38912 12.3178C5.31102 12.199 5.25244 12.0802 5.19386 11.9416C5.07671 11.7436 4.97908 11.5455 4.90098 11.3673C4.80335 11.1891 4.72524 11.0109 4.66667 10.8525C4.78382 10.7733 4.9205 10.6743 5.07671 10.6148C5.25244 10.5554 5.42817 10.496 5.60391 10.4564C5.79916 10.4168 5.9749 10.397 6.1311 10.3772C6.30683 10.3574 6.46304 10.3376 6.5802 10.3376ZM7.40028 13.4663V10.3574C7.49791 10.3574 7.61506 10.3376 7.73222 10.3574C7.84937 10.3574 7.98605 10.3772 8.10321 10.397C8.31799 10.4366 8.57183 10.496 8.76709 10.5554C8.98187 10.6346 9.17713 10.7337 9.31381 10.8525C9.0795 11.4267 8.82566 11.8822 8.57183 12.3178C8.31799 12.7535 8.0251 13.1297 7.71269 13.4465V13.4663H7.40028ZM5.29149 13.2881V13.3079C5.15481 13.2485 5.01813 13.1495 4.86192 13.0901C4.72524 13.0307 4.54951 12.9515 4.41283 12.8723C4.13947 12.7337 3.86611 12.5752 3.59275 12.397C3.33891 12.2188 3.08508 12.0208 2.87029 11.8228C2.9484 11.7436 3.04603 11.6644 3.12413 11.6049C3.20223 11.5455 3.29986 11.4663 3.39749 11.3871C3.47559 11.3475 3.57322 11.2881 3.67085 11.2089C3.76848 11.1495 3.88563 11.0703 4.00279 10.9911C4.159 11.3475 4.3152 11.7238 4.51046 12.0604C4.70572 12.4168 4.9205 12.7535 5.13529 13.0505C5.15481 13.0901 5.17434 13.1297 5.21339 13.1693C5.23291 13.1891 5.25244 13.2485 5.29149 13.2881ZM11.2664 11.8228V11.8426C10.7782 12.2188 10.3487 12.5356 9.91911 12.7337C9.48954 12.9317 9.05997 13.1297 8.66946 13.2881C8.98187 12.9713 9.25523 12.5752 9.43096 12.199C9.62622 11.803 9.82148 11.3871 9.97768 10.9911C10.0558 11.0307 10.1534 11.0703 10.2706 11.1495C10.3682 11.2089 10.5049 11.2683 10.622 11.3277C10.7392 11.4069 10.8368 11.4861 10.954 11.5653C11.0711 11.6644 11.1883 11.7436 11.2664 11.8228ZM10.9344 7.40693H13.1799C13.1799 8.1396 13.0237 8.83267 12.7308 9.54554C12.4575 10.2386 12.0669 10.8129 11.5788 11.3079V11.3277C11.4812 11.1693 11.3445 11.0307 11.2078 10.9317C11.0516 10.8327 10.9149 10.7535 10.7587 10.6743C10.6611 10.6148 10.5635 10.5356 10.4658 10.496C10.3682 10.4366 10.2315 10.397 10.1339 10.3376C10.212 10.1792 10.2901 10.001 10.3682 9.84257C10.4268 9.66435 10.5244 9.46633 10.5635 9.28811C10.6806 8.97128 10.7587 8.63465 10.8368 8.29802C10.8954 8.00099 10.9344 7.68415 10.9344 7.40693ZM3.86611 10.3376V10.3574C3.7099 10.4366 3.53417 10.496 3.39749 10.5752C3.26081 10.6743 3.12413 10.7733 3.00697 10.8525C2.88982 10.9119 2.77266 10.9911 2.67503 11.0703C2.57741 11.1495 2.4993 11.2287 2.4212 11.3079C1.91353 10.8129 1.54254 10.2584 1.30823 9.60495C1.05439 8.95148 0.878661 8.21881 0.800558 7.42673H3.20223C3.20223 7.98118 3.28033 8.51584 3.41702 9.05049C3.53417 9.60495 3.7099 10.0208 3.86611 10.3376ZM6.5802 7.42673V9.70396C6.42399 9.68415 6.22873 9.68415 6.053 9.70396C5.85774 9.72376 5.66248 9.78316 5.48675 9.84257C5.33054 9.88217 5.13529 9.92178 4.97908 9.98118C4.80335 10.0208 4.62761 10.1 4.49093 10.1792C4.37378 9.98118 4.27615 9.74356 4.19805 9.48613C4.10042 9.24851 4.04184 8.99108 3.98326 8.75346C3.94421 8.51584 3.92469 8.25841 3.90516 8.04059C3.88563 7.82277 3.86611 7.60495 3.86611 7.42673H6.5802ZM7.40028 9.66435V7.42673H10.2901C10.2901 7.54554 10.2901 7.68415 10.2706 7.84257C10.2315 7.98118 10.212 8.1594 10.1925 8.31782C10.1339 8.55544 10.0753 8.81287 9.99721 9.05049C9.91911 9.26831 9.841 9.48613 9.74337 9.66435C9.70432 9.76336 9.66527 9.88217 9.62622 9.96138C9.56764 10.0604 9.50907 10.1198 9.47001 10.1792C9.25523 10.0208 8.96234 9.92178 8.61088 9.84257C8.27894 9.76336 7.88842 9.68415 7.53696 9.66435H7.40028ZM3.20223 6.77326H0.800558C0.800558 6.43663 0.859135 6.06039 0.956764 5.60495C1.05439 5.1297 1.24965 4.69406 1.46444 4.21881C1.56206 3.98118 1.67922 3.74356 1.79637 3.50594C1.93305 3.28812 2.08926 3.05049 2.24547 2.83267C2.36262 2.91188 2.47978 2.97128 2.57741 3.03069C2.69456 3.0901 2.83124 3.1693 2.9484 3.22871C3.08508 3.28812 3.22176 3.34752 3.37796 3.42673C3.51464 3.48613 3.69038 3.56534 3.86611 3.64455C3.7099 4.1396 3.53417 4.61485 3.41702 5.1495C3.28033 5.66435 3.20223 6.1792 3.20223 6.75346V6.77326ZM6.5802 4.45643V6.77326H3.86611C3.86611 6.61485 3.88563 6.37722 3.92469 6.1396C3.94421 5.90198 4.00279 5.64455 4.04184 5.38712C4.11994 5.1099 4.17852 4.83267 4.25662 4.59505C4.33473 4.35742 4.41283 4.1594 4.49093 3.98118C4.8424 4.1198 5.19386 4.21881 5.42817 4.27821C5.68201 4.35742 5.91632 4.41683 6.15063 4.43663H6.36541C6.44351 4.45643 6.52162 4.45643 6.5802 4.45643ZM7.40028 6.77326V4.47623C7.53696 4.45643 7.69317 4.43663 7.84937 4.41683C8.0251 4.39703 8.23989 4.35742 8.41562 4.31782L8.70851 4.25841C8.80614 4.21881 8.92329 4.19901 9.02092 4.1792C9.13807 4.1396 9.25523 4.1198 9.37239 4.08019C9.47001 4.04059 9.56764 4.02079 9.64575 3.98118C9.89958 4.63465 10.0558 5.1693 10.1534 5.62475C10.251 6.06039 10.2901 6.43663 10.2901 6.75346V6.77326H7.40028ZM13.1799 6.75346V6.77326H10.9344V6.65445C10.9149 6.27821 10.8563 5.84257 10.7782 5.38712C10.7001 4.95148 10.5244 4.43663 10.2901 3.80297C10.6025 3.64455 10.8954 3.48613 11.1297 3.32772C11.364 3.1693 11.5788 2.99109 11.735 2.83267C12.0669 3.1693 12.3598 3.62475 12.6137 4.21881C12.8675 4.79307 13.0432 5.38712 13.1409 6.02079C13.1604 6.1396 13.1604 6.25841 13.1799 6.37722V6.75346ZM6.5802 0.73366V3.82277C6.09205 3.74356 5.68201 3.64455 5.3696 3.56534C5.05718 3.48613 4.82287 3.40693 4.66667 3.32772C4.78382 3.03069 4.90098 2.77326 5.01813 2.53564C5.13529 2.31782 5.27197 2.08019 5.38912 1.88217C5.42817 1.80297 5.50628 1.72376 5.56485 1.62475C5.62343 1.54554 5.66248 1.44653 5.72106 1.36732C5.77964 1.26831 5.83821 1.1495 5.89679 1.03069C5.9749 0.93168 6.03347 0.812867 6.11158 0.73366H6.5802ZM7.40028 0.73366H7.84937C8.0251 0.872273 8.20084 1.07029 8.33752 1.28812C8.49372 1.50594 8.66946 1.76336 8.78661 1.98118C8.92329 2.23861 9.05997 2.47623 9.17713 2.71386C9.29428 2.95148 9.39191 3.1693 9.47001 3.32772C9.25523 3.40693 8.96234 3.48613 8.66946 3.56534C8.37657 3.64455 7.96653 3.72376 7.40028 3.80297V0.73366ZM11.2664 2.35742V2.37722C11.2273 2.43663 11.1492 2.51584 11.0907 2.57524C11.0321 2.63465 10.9344 2.71386 10.8368 2.77326C10.7587 2.83267 10.6611 2.89208 10.5439 2.95148C10.4268 3.01089 10.2706 3.0901 10.1339 3.1693C10.0558 3.01089 9.91911 2.73366 9.72385 2.35742C9.54812 1.98118 9.2357 1.52574 8.84519 1.03069C9.33333 1.1099 9.7629 1.28812 10.1534 1.52574C10.583 1.74356 10.954 2.04059 11.2664 2.35742ZM4.00279 2.99109V3.01089C3.86611 2.93168 3.65132 2.83267 3.43654 2.73366C3.20223 2.63465 2.9484 2.51584 2.71409 2.35742C2.85077 2.23861 2.98745 2.1198 3.1046 2.04059C3.22176 1.94158 3.35844 1.86237 3.47559 1.78316C3.69038 1.64455 3.94421 1.50594 4.19805 1.38713C4.45188 1.26831 4.7643 1.1495 5.15481 1.03069C5.01813 1.18911 4.9205 1.38713 4.82287 1.54554C4.72524 1.70396 4.60809 1.86237 4.51046 2.02079C4.41283 2.1792 4.33473 2.35742 4.25662 2.51584C4.159 2.67425 4.08089 2.83267 4.00279 2.99109Z" fill="#333333"/>
</svg>
