<svg width="14" height="15" viewBox="0 0 14 15" fill="none" xmlns="http://www.w3.org/2000/svg">
<path d="M6.67773 7.5C8.47266 7.5 9.92773 6.04493 9.92773 4.25C9.92773 2.45507 8.47266 1 6.67773 1C4.88281 1 3.42773 2.45507 3.42773 4.25C3.42773 6.04493 4.88281 7.5 6.67773 7.5Z" stroke="white" stroke-width="1.5"/>
<path d="M9.92738 8.7998H10.1562C10.6314 8.79994 11.0902 8.97359 11.4464 9.28814C11.8026 9.60268 12.0317 10.0365 12.0906 10.508L12.3447 12.5386C12.3676 12.7215 12.3513 12.9072 12.2969 13.0834C12.2425 13.2595 12.1513 13.4221 12.0292 13.5603C11.9072 13.6985 11.7572 13.8091 11.5891 13.8849C11.4211 13.9607 11.2388 13.9998 11.0545 13.9998H2.30028C2.11593 13.9998 1.93368 13.9607 1.76562 13.8849C1.59757 13.8091 1.44755 13.6985 1.32553 13.5603C1.20351 13.4221 1.11227 13.2595 1.05788 13.0834C1.00348 12.9072 0.987174 12.7215 1.01003 12.5386L1.26353 10.508C1.32249 10.0362 1.55175 9.60228 1.90822 9.28771C2.26469 8.97313 2.72381 8.79962 3.19923 8.7998H3.42738" stroke="white" stroke-width="1.5" stroke-linecap="round" stroke-linejoin="round"/>
</svg>
