<svg width="22" height="16" viewBox="0 0 22 16" fill="none" xmlns="http://www.w3.org/2000/svg">
<path d="M21.5393 2.5104C21.4148 2.02593 21.1722 1.58732 20.8373 1.24119C20.4929 0.884414 20.0708 0.629204 19.6109 0.499649C17.8897 0.0049557 10.9936 0.00495581 10.9936 0.00495581C8.11869 -0.0307094 5.2445 0.126155 2.38724 0.474664C1.92731 0.613791 1.50605 0.874703 1.16091 1.23419C0.821789 1.58997 0.576155 2.0287 0.447839 2.5094C0.139599 4.32002 -0.0101652 6.15848 0.000565675 7.99999C-0.0104328 9.83985 0.138964 11.6777 0.447839 13.4906C0.573405 13.9693 0.818122 14.406 1.15816 14.7588C1.4982 15.1116 1.92164 15.3664 2.38724 15.5013C4.13143 15.995 10.9936 15.995 10.9936 15.995C13.8721 16.0307 16.75 15.8739 19.6109 15.5253C20.0708 15.3958 20.4929 15.1406 20.8373 14.7838C21.1764 14.431 21.4174 13.9923 21.5384 13.5146C21.8547 11.7046 22.0085 9.86543 21.9976 8.02298C22.0214 6.17273 21.8678 4.32484 21.5393 2.5094V2.5104ZM8.80122 11.4219V4.57912L14.5388 8.00099L8.80122 11.4219Z" fill="white"/>
</svg>
